<?xml version="1.0" encoding="UTF-8"?>
<svg width="494px" height="106px" viewBox="0 0 494 106" version="1.1" xmlns="http://www.w3.org/2000/svg" xmlns:xlink="http://www.w3.org/1999/xlink">
    <title>19-Step-style2</title>
    <g id="页面-1" stroke="none" stroke-width="1" fill="none" fill-rule="evenodd">
        <g id="a" transform="translate(-32.000000, -226.000000)">
            <g id="编组-68" transform="translate(64.000000, 217.000000)">
                <rect id="矩形备份-33" x="0" y="0" width="430" height="124"></rect>
                <text id="Step" font-family="MicrosoftYaHei, Microsoft YaHei" font-size="12" font-weight="normal" line-spacing="22" fill="#525A6E">
                    <tspan x="5" y="27">Step</tspan>
                </text>
                <text id="Step1" font-family="PingFangSC-Regular, PingFang SC" font-size="12" font-weight="normal" fill="#5A6677">
                    <tspan x="82.826" y="55">Step1</tspan>
                </text>
                <text id="Descriptive-text-of" font-family="PingFangSC-Regular, PingFang SC" font-size="12" font-weight="normal" fill="#AAADBA">
                    <tspan x="54" y="74">Descriptive text </tspan>
                    <tspan x="54" y="91">of the first tille </tspan>
                </text>
                <text id="Descriptive-text-of" font-family="PingFangSC-Regular, PingFang SC" font-size="12" font-weight="normal" fill="#AAADBA">
                    <tspan x="322" y="74">Descriptive text </tspan>
                    <tspan x="322" y="91">of the third title</tspan>
                </text>
                <text id="Descriptive-text-of" font-family="PingFangSC-Regular, PingFang SC" font-size="12" font-weight="normal" fill="#AAADBA">
                    <tspan x="188" y="74">Descriptive text </tspan>
                    <tspan x="188" y="91">of the second </tspan>
                    <tspan x="188" y="108">tille </tspan>
                </text>
                <text id="Step3" font-family="PingFangSC-Regular, PingFang SC" font-size="12" font-weight="normal" fill="#5A6677">
                    <tspan x="349.632" y="55">Step3</tspan>
                </text>
                <text id="Step2" font-family="PingFangSC-Regular, PingFang SC" font-size="12" font-weight="normal" fill="#5A6677">
                    <tspan x="215.632" y="55">Step2</tspan>
                </text>
                <rect id="矩形备份-27" fill="#D0E5FF" x="120" y="26" width="90" height="1"></rect>
                <rect id="矩形备份-28" fill="#D0E5FF" x="254" y="26" width="90" height="1"></rect>
                <g id="编组-56备份" transform="translate(354.000000, 14.000000)">
                    <circle id="椭圆形备份-13" stroke="#999999" cx="12" cy="12" r="11.5"></circle>
                    <text id="3" font-family="PingFangSC-Regular, PingFang SC" font-size="10" font-weight="normal" line-spacing="14" fill="#999999">
                        <tspan x="9" y="16">3</tspan>
                    </text>
                </g>
                <circle id="椭圆形备份-15" stroke="#3889FF" cx="98" cy="26" r="11.5"></circle>
                <g id="完成备份-3" transform="translate(93.000000, 22.000000)" fill="#3889FF">
                    <path d="M8.9,0.7 L3.60000001,5.99999999 L1.14999999,3.55 C0.95,3.35000001 0.65,3.35000001 0.450000008,3.55 C0.250000016,3.74999999 0.250000016,4.04999999 0.450000008,4.25000001 L3.65,7.45 L9.65,1.45 C9.84999999,1.25000001 9.84999999,0.950000008 9.65,0.749999992 C9.39999999,0.499999984 9.09999999,0.499999984 8.9,0.7 Z" id="路径"></path>
                </g>
                <g id="完成-2备份-3" transform="translate(220.000000, 14.000000)" fill="#3889FF" fill-rule="nonzero">
                    <g id="完成">
                        <path d="M12,0 C5.4,0 0,5.4 0,12 C0,18.6 5.4,24 12,24 C18.6,24 24,18.6 24,12 C24,5.4 18.6,0 12,0 Z" id="路径"></path>
                        <path d="M12,23.05 C5.89999999,23.05 0.949999992,18.1 0.949999992,12 C0.949999992,5.89999999 5.89999999,0.949999992 12,0.949999992 C18.1,0.949999992 23.05,5.89999999 23.05,12 C23.05,18.1 18.1,23.05 12,23.05 Z" id="路径"></path>
                    </g>
                </g>
                <text id="2备份-6" font-family="PingFangSC-Regular, PingFang SC" font-size="10" font-weight="normal" line-spacing="14" fill="#FFFFFF">
                    <tspan x="229" y="30">2</tspan>
                </text>
            </g>
        </g>
    </g>
</svg>