<?xml version="1.0" encoding="UTF-8"?>
<svg width="494px" height="106px" viewBox="0 0 494 106" version="1.1" xmlns="http://www.w3.org/2000/svg" xmlns:xlink="http://www.w3.org/1999/xlink">
    <title>19-Step-style2备份</title>
    <g id="页面-1" stroke="none" stroke-width="1" fill="none" fill-rule="evenodd">
        <g id="a" transform="translate(-32.000000, -63.000000)">
            <g id="编组-46" transform="translate(64.000000, 54.000000)">
                <rect id="矩形备份-26" x="0" y="0" width="430" height="124"></rect>
                <text id="第二标题详细描述文字备份" font-family="PingFangSC-Regular, PingFang SC" font-size="12" font-weight="normal" fill="#AAADBA">
                    <tspan x="184" y="76">第二标题详细描述</tspan>
                    <tspan x="184" y="93">文字</tspan>
                </text>
                <text id="第一标题详细描述文字备份" font-family="PingFangSC-Regular, PingFang SC" font-size="12" font-weight="normal" fill="#AAADBA">
                    <tspan x="50" y="76">第一标题详细描述</tspan>
                    <tspan x="50" y="93">文字</tspan>
                </text>
                <text id="第三标题详细描述文字备份" font-family="PingFangSC-Regular, PingFang SC" font-size="12" font-weight="normal" fill="#AAADBA">
                    <tspan x="318" y="76">第三标题详细描述</tspan>
                    <tspan x="318" y="93">文字</tspan>
                </text>
                <text id="样式备份-2" font-family="MicrosoftYaHei, Microsoft YaHei" font-size="12" font-weight="normal" line-spacing="22" fill="#525A6E">
                    <tspan x="5" y="27">样式</tspan>
                </text>
                <text id="标题名称一" font-family="PingFangSC-Regular, PingFang SC" font-size="12" font-weight="normal" fill="#5A6677">
                    <tspan x="68" y="55">标题名称一</tspan>
                </text>
                <text id="标题名称二" font-family="PingFangSC-Regular, PingFang SC" font-size="12" font-weight="normal" fill="#5A6677">
                    <tspan x="202" y="55">标题名称二</tspan>
                </text>
                <text id="标题名称三" font-family="PingFangSC-Regular, PingFang SC" font-size="12" font-weight="normal" fill="#5A6677">
                    <tspan x="336" y="55">标题名称三</tspan>
                </text>
                <rect id="矩形备份-22" fill="#D0E5FF" x="120" y="26" width="90" height="1"></rect>
                <rect id="矩形备份-23" fill="#D0E5FF" x="254" y="26" width="90" height="1"></rect>
                <g id="编组-56" transform="translate(354.000000, 14.000000)">
                    <circle id="椭圆形备份-13" stroke="#999999" cx="12" cy="12" r="11.5"></circle>
                    <text id="3" font-family="PingFangSC-Regular, PingFang SC" font-size="10" font-weight="normal" line-spacing="14" fill="#999999">
                        <tspan x="9" y="16">3</tspan>
                    </text>
                </g>
                <g id="完成-2备份-2" transform="translate(220.000000, 14.000000)" fill="#3889FF" fill-rule="nonzero">
                    <g id="完成">
                        <path d="M12,0 C5.4,0 0,5.4 0,12 C0,18.6 5.4,24 12,24 C18.6,24 24,18.6 24,12 C24,5.4 18.6,0 12,0 Z" id="路径"></path>
                        <path d="M12,23.05 C5.89999999,23.05 0.949999992,18.1 0.949999992,12 C0.949999992,5.89999999 5.89999999,0.949999992 12,0.949999992 C18.1,0.949999992 23.05,5.89999999 23.05,12 C23.05,18.1 18.1,23.05 12,23.05 Z" id="路径"></path>
                    </g>
                </g>
                <text id="2备份-5" font-family="PingFangSC-Regular, PingFang SC" font-size="10" font-weight="normal" line-spacing="14" fill="#FFFFFF">
                    <tspan x="229" y="30">2</tspan>
                </text>
                <g id="完成" transform="translate(86.000000, 14.000000)" fill="#3889FF">
                    <path d="M12,0 C5.4,0 0,5.4 0,12 C0,18.6 5.4,24 12,24 C18.6,24 24,18.6 24,12 C24,5.4 18.6,0 12,0 Z M12,23.05 C5.89999999,23.05 0.949999992,18.1 0.949999992,12 C0.949999992,5.89999999 5.89999999,0.949999992 12,0.949999992 C18.1,0.949999992 23.05,5.89999999 23.05,12 C23.05,18.1 18.1,23.05 12,23.05 Z" id="形状" fill-rule="nonzero"></path>
                    <path d="M15.9,8.7 L10.6,14 L8.14999999,11.55 C7.95,11.35 7.65,11.35 7.45000001,11.55 C7.25000002,11.75 7.25000002,12.05 7.45000001,12.25 L10.65,15.45 L16.65,9.45 C16.85,9.25000001 16.85,8.95000001 16.65,8.74999999 C16.4,8.49999998 16.1,8.49999998 15.9,8.7 Z" id="路径"></path>
                </g>
            </g>
        </g>
    </g>
</svg>