<?xml version="1.0" encoding="UTF-8"?>
<svg width="18px" height="18px" viewBox="0 0 18 18" version="1.1" xmlns="http://www.w3.org/2000/svg" xmlns:xlink="http://www.w3.org/1999/xlink">
    <title>切片</title>
    <defs>
        <path d="M10.6046512,0 C11.375281,0 12,0.624718954 12,1.39534884 L12,10.6046512 C12,11.375281 11.375281,12 10.6046512,12 L1.39534884,12 C0.624718954,12 0,11.375281 0,10.6046512 L0,1.39534884 C0,0.624718954 0.624718954,0 1.39534884,0 L10.6046512,0 Z M10.632508,0.837892368 L1.39534884,0.837209302 C1.09643785,0.837209302 0.852407599,1.07218165 0.837892368,1.36749205 L0.837209302,10.6046512 C0.837209302,10.9035621 1.07218165,11.1475924 1.36749205,11.1621076 L10.6046512,11.1627907 C10.9035621,11.1627907 11.1475924,10.9278184 11.1621076,10.632508 L11.1627907,1.39534884 C11.1627907,1.09643785 10.9278184,0.852407599 10.632508,0.837892368 Z M9.55813953,5.37209302 L9.55813953,6.48837209 L2.58139535,6.48837209 L2.58139535,5.37209302 L9.55813953,5.37209302 Z" id="path-1"></path>
    </defs>
    <g id="API测试" stroke="none" stroke-width="1" fill="none" fill-rule="evenodd">
        <g id="API测试目录-任务详情" transform="translate(-290.000000, -320.000000)">
            <g id="编组-3" transform="translate(262.000000, 118.000000)">
                <g id="编组-2" transform="translate(1.000000, 93.000000)">
                    <g id="treeitem" transform="translate(27.000000, 108.000000)">
                        <g id="ic/tree_close" transform="translate(0.000000, 1.000000)">
                            <polygon id="路径" points="0 0 18 0 18 18 0 18"></polygon>
                            <g id="🎨-Color" transform="translate(3.000000, 3.000000)">
                                <mask id="mask-2" fill="white">
                                    <use xlink:href="#path-1"></use>
                                </mask>
                                <g id="蒙版" fill-rule="nonzero"></g>
                                <g id="编组" mask="url(#mask-2)">
                                    <g transform="translate(-3.000000, -3.000000)" id="🎨-Color">
                                        <rect id="形状" fill="#ABBCCF" x="0" y="0" width="18" height="18"></rect>
                                    </g>
                                </g>
                            </g>
                        </g>
                    </g>
                </g>
            </g>
        </g>
    </g>
</svg>