<?xml version="1.0" standalone="no"?><!DOCTYPE svg PUBLIC "-//W3C//DTD SVG 1.1//EN" "http://www.w3.org/Graphics/SVG/1.1/DTD/svg11.dtd"><svg t="1574911126844" class="icon" viewBox="0 0 1024 1024" version="1.1" xmlns="http://www.w3.org/2000/svg" p-id="2401" xmlns:xlink="http://www.w3.org/1999/xlink" width="200" height="200"><defs><style type="text/css"></style></defs><path d="M483.555556 170.666667h56.888888a56.888889 56.888889 0 0 1 56.888889 56.888889v56.888888a56.888889 56.888889 0 0 1-56.888889 56.888889h-56.888888a56.888889 56.888889 0 0 1-56.888889-56.888889V227.555556a56.888889 56.888889 0 0 1 56.888889-56.888889z m0 256h56.888888a56.888889 56.888889 0 0 1 56.888889 56.888889v56.888888a56.888889 56.888889 0 0 1-56.888889 56.888889h-56.888888a56.888889 56.888889 0 0 1-56.888889-56.888889v-56.888888a56.888889 56.888889 0 0 1 56.888889-56.888889z m0 256h56.888888a56.888889 56.888889 0 0 1 56.888889 56.888889v56.888888a56.888889 56.888889 0 0 1-56.888889 56.888889h-56.888888a56.888889 56.888889 0 0 1-56.888889-56.888889v-56.888888a56.888889 56.888889 0 0 1 56.888889-56.888889z" fill="#5A6677" p-id="2402"></path></svg>