<svg t="1574305962806" class="icon" viewBox="0 0 1024 1024" version="1.1" xmlns="http://www.w3.org/2000/svg" p-id="1590" width="200" height="200"><path d="M706.19 106m41.47 0l0 0q41.47 0 41.47 41.47l0 747.06q0 41.47-41.47 41.47l0 0q-41.47 0-41.47-41.47l0-747.06q0-41.47 41.47-41.47Z" fill="#666666" p-id="1591"></path><path d="M240.46 865l375.81-344.25-375.81-344.21a39.32 39.32 0 0 1-13.11-29c0-36.51 48.2-54.79 76.38-29L679.55 462.8c35 32 35 83.9 0 115.9L303.73 922.92c-28.18 25.81-76.38 7.53-76.38-29A39.33 39.33 0 0 1 240.46 865z" fill="#666666" p-id="1592"></path></svg>